<?xml version="1.0" encoding="UTF-8"?><svg id="Layer_1" xmlns="http://www.w3.org/2000/svg" viewBox="0 0 343.83 343.83"><defs><style>.cls-1{fill:#0180a1;}.cls-2{fill:#3eb7b1;}.cls-3{fill:#1a1b3a;}</style></defs><ellipse class="cls-3" cx="171.92" cy="171.58" rx="166.28" ry="166.58"/><g><path class="cls-1" d="m311.74,232.19c-23.45,53.99-77.21,91.77-139.82,91.77-2.55,0-5.08-.06-7.59-.19-80.65-3.96-144.8-70.6-144.8-152.21,0-13.65,1.83-26.88,5.2-39.46,3.43-3.66,8.26-5.96,13.63-5.96,10.41,0,18.88,8.55,18.88,19.05v6.13c0,.11-.04.21-.04.29v46.35c0,19.17,15.55,34.78,34.63,34.78s34.64-15.61,34.64-34.78v-37.4c0-.13-.04-.23-.04-.36v-15.02c0-10.49,8.47-19.05,18.87-19.05s18.88,8.55,18.88,19.05v52.77c0,19.17,15.53,34.78,34.62,34.78s34.63-15.61,34.63-34.78v-37.4c0-.13-.04-.23-.04-.36v-15.02c0-10.49,8.47-19.05,18.88-19.05s18.87,8.55,18.87,19.05v1.24c0,.08-.02.17-.02.27v51.26c0,17.65,13.17,32.27,30.15,34.49,1.46.19,2.95.29,4.47.29,2.04,0,4.04-.21,6-.55"/><path class="cls-2" d="m324.29,171.58c0,13.8-1.88,27.14-5.29,39.86v.02s-.02.02-.02.04c-.02.02-.04.04-.06.04v.02c-3.41,3.35-8.05,5.44-13.19,5.44-10.4,0-18.87-8.55-18.87-19.05v-10.95c0-.11.02-.19.02-.28v-41.54c0-19.17-15.53-34.78-34.62-34.78s-34.63,15.61-34.63,34.78v42.47c0,.11.04.21.04.34v9.96c0,10.49-8.47,19.05-18.88,19.05s-18.88-8.55-18.88-19.05v-52.77c0-19.17-15.52-34.78-34.61-34.78s-34.64,15.61-34.64,34.78v42.47c0,.11.04.23.04.34v9.96c0,10.49-8.47,19.05-18.87,19.05s-18.88-8.55-18.88-19.05v-6.13c0-.11.04-.19.04-.29v-46.35c0-19.17-15.53-34.76-34.62-34.78h-.02c-2.15,0-4.24.21-6.28.59C55.52,56.97,109.28,19.2,171.91,19.2c.82,0,1.62,0,2.44.02,83.03,1.31,149.94,69.02,149.94,152.36"/></g></svg>